#!OML:ASF F:\VICON\USERDATA\INSTALL\rory3\rory3.ASF
:FULLY-SPECIFIED
:DEGREES
609
root 0.476025 29.2028 -5.56375 4.03487 -63.5787 -356.824
lowerback 3.92834 0.213363 -1.79519
upperback 1.21272 0.220142 1.56428
thorax -0.970076 0.103589 2.60382
lowerneck -14.0132 3.92378 -8.72077
upperneck 41.472 8.82414 -2.85949
head 17.5095 1.34776 1.68234
rclavicle 3.1408e-014 -1.35174e-014
rhumerus -28.2353 -9.71896 -72.3105
rradius 36.9823
rwrist 15.486
rhand -24.0886 4.90423
rfingers 7.12502
rthumb 2.39176 -25.0621
lclavicle 3.1408e-014 -1.35174e-014
lhumerus -33.2016 20.9138 73.1729
lradius 30.5413
lwrist -3.85597
lhand -17.4997 26.469
lfingers 7.12502
lthumb 8.75315 56.2675
rfemur -24.4837 -1.7356 15.6583
rtibia 47.5878
rfoot -20.4489 -1.89986
rtoes 7.33179
lfemur -16.4495 -4.59721 -22.3244
ltibia 20.3194
lfoot -9.86809 -11.5744
ltoes -14.3302
610
root 0.45615 29.1939 -5.59698 3.90063 -61.9767 -356.818
lowerback 4.38 -0.0381117 -1.83954
upperback 1.189 -0.122258 1.58921
thorax -1.22658 -0.0642221 2.6726
lowerneck -13.909 3.95159 -8.57904
upperneck 41.3798 8.92524 -3.12032
head 17.4602 1.38932 1.55583
rclavicle -2.22639e-014 -6.36111e-015
rhumerus -28.5832 -8.44865 -72.6746
rradius 37.8974
rwrist 14.0649
rhand -23.9637 5.44324
rfingers 7.12502
rthumb 2.51241 -24.5217
lclavicle -2.22639e-014 -6.36111e-015
lhumerus -33.2314 21.1064 73.039
lradius 30.322
lwrist -3.81635
lhand -17.414 26.0351
lfingers 7.12502
lthumb 8.83586 55.8301
rfemur -24.0558 -0.594141 15.2081
rtibia 46.3101
rfoot -20.6378 -1.82909
rtoes 6.47029
lfemur -16.569 -5.14293 -22.1968
ltibia 20.554
lfoot -10.1066 -12.376
ltoes -14.0728
611
root 0.430518 29.1667 -5.63322 3.86617 -60.51 -356.807
lowerback 4.6862 -0.253162 -1.99462
upperback 1.15865 -0.41907 1.63979
thorax -1.40941 -0.209447 2.83089
lowerneck -13.9336 3.9526 -8.42122
upperneck 41.3056 9.04146 -3.47352
head 17.4666 1.42082 1.39196
rclavicle 1.5207e-014 0
rhumerus -28.7633 -7.47512 -72.9747
rradius 38.6501
rwrist 12.5941
rhand -23.6572 6.15126
rfingers 7.12502
rthumb 2.80838 -23.81
lclavicle 1.5207e-014 0
lhumerus -33.274 21.2065 73.0837
lradius 30.1895
lwrist -3.08618
lhand -17.0415 26.0909
lfingers 7.12502
lthumb 9.19534 55.8704
rfemur -23.7758 0.231629 14.9955
rtibia 45.0513
rfoot -20.2607 -2.54094
rtoes -0.229514
lfemur -16.7787 -5.83707 -22.0082
ltibia 20.7895
lfoot -10.0214 -12.9469
ltoes -11.7477
612
root 0.391549 29.1537 -5.66181 4.05828 -59.349 -356.971
lowerback 4.62764 -0.381689 -2.05942
upperback 1.18659 -0.591726 1.70584
thorax -1.33552 -0.297 2.9446
lowerneck -13.9422 3.95838 -8.54794
upperneck 41.1813 9.11747 -3.49592
head 17.3933 1.44638 1.41926
rclavicle -9.44227e-015 -1.74931e-014
rhumerus -28.7275 -6.62349 -73.5862
rradius 39.1051
rwrist 13.0157
rhand -25.119 3.34489
rfingers 7.12502
rthumb 1.39664 -26.6303
lclavicle -9.44227e-015 -1.74931e-014
lhumerus -33.4281 21.9826 72.7765
lradius 30.2379
lwrist -3.87864
lhand -16.0824 26.8319
lfingers 7.12502
lthumb 10.1207 56.5685
rfemur -23.5643 1.57572 14.6833
rtibia 43.8037
rfoot -19.9177 -2.70218
rtoes -5.61856
lfemur -17.0306 -6.51326 -21.6953
ltibia 21.131
lfoot -9.787 -13.2512
ltoes -8.12558
613
root 0.351118 29.1543 -5.68311 4.09326 -58.0485 -356.819
lowerback 4.41074 -0.570934 -2.19896
upperback 1.15448 -0.8456 1.72616
thorax -1.22802 -0.424377 3.0553
lowerneck -13.8838 3.9574 -8.79228
upperneck 41.1656 9.14933 -3.36621
head 17.345 1.44937 1.52452
rclavicle 7.25564e-015 -7.95139e-016
rhumerus -28.4984 -6.98685 -73.9038
rradius 38.9951
rwrist 13.7518
rhand -25.7813 2.15086
rfingers 7.12502
rthumb 0.756984 -27.8275
lclavicle 7.25564e-015 -7.95139e-016
lhumerus -33.6475 22.7275 72.3531
lradius 30.2981
lwrist -5.32129
lhand -14.7615 27.4233
lfingers 7.12502
lthumb 11.3948 57.0937
rfemur -23.3963 2.94753 14.0323
rtibia 42.5546
rfoot -19.8821 -1.97512
rtoes -8.17669
lfemur -17.3846 -6.94472 -21.638
ltibia 21.432
lfoot -9.726 -13.9362
ltoes -6.84622
614
root 0.306945 29.1542 -5.71165 4.49992 -57.416 -357.01
lowerback 4.12043 -0.503079 -2.30937
upperback 1.09638 -0.753373 1.78447
thorax -1.12948 -0.378523 3.16948
lowerneck -13.7286 4.00173 -8.81724
upperneck 41.132 9.26199 -3.48164
head 17.2949 1.4873 1.49255
rclavicle 9.73051e-014 -2.14687e-014
rhumerus -28.4706 -7.3208 -74.0789
rradius 39.0309
rwrist 14.3445
rhand -25.9307 2.14446
rfingers 7.12502
rthumb 0.612713 -27.8344
lclavicle 9.73051e-014 -2.14687e-014
lhumerus -33.6514 22.6808 72.2853
lradius 30.181
lwrist -5.49544
lhand -15.0018 26.9377
lfingers 7.12502
lthumb 11.1631 56.6207
rfemur -23.4074 4.87919 13.4718
rtibia 41.3257
rfoot -19.8557 -0.293902
rtoes -8.34151
lfemur -17.7029 -6.74163 -21.4099
ltibia 21.6176
lfoot -9.94698 -14.6463
ltoes -7.36586
